<mxfile host="app.diagrams.net" modified="2024-03-27T18:39:12.882Z" agent="Mozilla/5.0 (Windows NT 10.0; Win64; x64) AppleWebKit/537.36 (KHTML, like Gecko) Chrome/120.0.0.0 YaBrowser/24.1.0.0 Safari/537.36" etag="agMHSGfwY0fVh5lTZ-d7" version="24.0.7" type="github">
  <diagram name="Страница — 1" id="dAR8a9Lit0Kjr8BiWo3q">
    <mxGraphModel dx="1052" dy="583" grid="1" gridSize="10" guides="1" tooltips="1" connect="1" arrows="1" fold="1" page="1" pageScale="1" pageWidth="827" pageHeight="1169" math="0" shadow="0">
      <root>
        <mxCell id="0" />
        <mxCell id="1" parent="0" />
        <mxCell id="UCxK-_inKPw9EmvDnT-q-1" value="Начало" style="ellipse;whiteSpace=wrap;html=1;" vertex="1" parent="1">
          <mxGeometry x="310" y="20" width="120" height="80" as="geometry" />
        </mxCell>
        <mxCell id="UCxK-_inKPw9EmvDnT-q-3" value="" style="endArrow=classic;html=1;rounded=0;" edge="1" parent="1">
          <mxGeometry width="50" height="50" relative="1" as="geometry">
            <mxPoint x="369.5" y="100" as="sourcePoint" />
            <mxPoint x="370" y="140" as="targetPoint" />
          </mxGeometry>
        </mxCell>
        <mxCell id="UCxK-_inKPw9EmvDnT-q-4" value="Строка s" style="shape=parallelogram;perimeter=parallelogramPerimeter;whiteSpace=wrap;html=1;fixedSize=1;" vertex="1" parent="1">
          <mxGeometry x="265" y="140" width="210" height="60" as="geometry" />
        </mxCell>
        <mxCell id="UCxK-_inKPw9EmvDnT-q-5" value="" style="endArrow=classic;html=1;rounded=0;exitX=0.5;exitY=1;exitDx=0;exitDy=0;" edge="1" parent="1" source="UCxK-_inKPw9EmvDnT-q-4">
          <mxGeometry width="50" height="50" relative="1" as="geometry">
            <mxPoint x="390" y="330" as="sourcePoint" />
            <mxPoint x="370" y="270" as="targetPoint" />
          </mxGeometry>
        </mxCell>
        <mxCell id="UCxK-_inKPw9EmvDnT-q-7" value="" style="endArrow=classic;html=1;rounded=0;" edge="1" parent="1" source="UCxK-_inKPw9EmvDnT-q-6">
          <mxGeometry width="50" height="50" relative="1" as="geometry">
            <mxPoint x="390" y="330" as="sourcePoint" />
            <mxPoint x="440" y="280" as="targetPoint" />
            <Array as="points">
              <mxPoint x="410" y="310" />
            </Array>
          </mxGeometry>
        </mxCell>
        <mxCell id="UCxK-_inKPw9EmvDnT-q-8" value="" style="endArrow=classic;html=1;rounded=0;" edge="1" parent="1" target="UCxK-_inKPw9EmvDnT-q-6">
          <mxGeometry width="50" height="50" relative="1" as="geometry">
            <mxPoint x="390" y="330" as="sourcePoint" />
            <mxPoint x="440" y="280" as="targetPoint" />
            <Array as="points" />
          </mxGeometry>
        </mxCell>
        <mxCell id="UCxK-_inKPw9EmvDnT-q-6" value="преобразуем строку s в массив stringArray" style="rounded=0;whiteSpace=wrap;html=1;" vertex="1" parent="1">
          <mxGeometry x="275" y="270" width="190" height="90" as="geometry" />
        </mxCell>
        <mxCell id="UCxK-_inKPw9EmvDnT-q-9" value="" style="endArrow=classic;html=1;rounded=0;" edge="1" parent="1">
          <mxGeometry width="50" height="50" relative="1" as="geometry">
            <mxPoint x="369.5" y="360" as="sourcePoint" />
            <mxPoint x="369.5" y="420" as="targetPoint" />
          </mxGeometry>
        </mxCell>
        <mxCell id="UCxK-_inKPw9EmvDnT-q-10" value="если элемент массива stringArray[i]&amp;lt;=3" style="rhombus;whiteSpace=wrap;html=1;" vertex="1" parent="1">
          <mxGeometry x="300" y="420" width="140" height="140" as="geometry" />
        </mxCell>
        <mxCell id="UCxK-_inKPw9EmvDnT-q-11" value="" style="endArrow=classic;html=1;rounded=0;" edge="1" parent="1">
          <mxGeometry width="50" height="50" relative="1" as="geometry">
            <mxPoint x="440" y="490" as="sourcePoint" />
            <mxPoint x="530" y="490" as="targetPoint" />
          </mxGeometry>
        </mxCell>
        <mxCell id="UCxK-_inKPw9EmvDnT-q-12" value="да" style="text;html=1;align=center;verticalAlign=middle;resizable=0;points=[];autosize=1;strokeColor=none;fillColor=none;" vertex="1" parent="1">
          <mxGeometry x="460" y="468" width="40" height="30" as="geometry" />
        </mxCell>
        <mxCell id="UCxK-_inKPw9EmvDnT-q-13" value="печать stringArray[i]" style="shape=document;whiteSpace=wrap;html=1;boundedLbl=1;" vertex="1" parent="1">
          <mxGeometry x="530" y="450" width="120" height="80" as="geometry" />
        </mxCell>
        <mxCell id="UCxK-_inKPw9EmvDnT-q-14" value="" style="endArrow=classic;html=1;rounded=0;exitX=0.5;exitY=1;exitDx=0;exitDy=0;" edge="1" parent="1" source="UCxK-_inKPw9EmvDnT-q-10">
          <mxGeometry width="50" height="50" relative="1" as="geometry">
            <mxPoint x="390" y="630" as="sourcePoint" />
            <mxPoint x="370" y="620" as="targetPoint" />
          </mxGeometry>
        </mxCell>
        <mxCell id="UCxK-_inKPw9EmvDnT-q-15" value="нет" style="text;html=1;align=center;verticalAlign=middle;resizable=0;points=[];autosize=1;strokeColor=none;fillColor=none;" vertex="1" parent="1">
          <mxGeometry x="360" y="568" width="40" height="30" as="geometry" />
        </mxCell>
        <mxCell id="UCxK-_inKPw9EmvDnT-q-16" value="i + 1" style="rounded=0;whiteSpace=wrap;html=1;" vertex="1" parent="1">
          <mxGeometry x="310" y="620" width="120" height="60" as="geometry" />
        </mxCell>
        <mxCell id="UCxK-_inKPw9EmvDnT-q-17" value="" style="endArrow=classic;html=1;rounded=0;entryX=1.058;entryY=0.567;entryDx=0;entryDy=0;entryPerimeter=0;exitX=0.458;exitY=0.963;exitDx=0;exitDy=0;exitPerimeter=0;" edge="1" parent="1" source="UCxK-_inKPw9EmvDnT-q-13" target="UCxK-_inKPw9EmvDnT-q-16">
          <mxGeometry width="50" height="50" relative="1" as="geometry">
            <mxPoint x="670" y="654" as="sourcePoint" />
            <mxPoint x="590" y="585" as="targetPoint" />
            <Array as="points">
              <mxPoint x="585" y="654" />
            </Array>
          </mxGeometry>
        </mxCell>
        <mxCell id="UCxK-_inKPw9EmvDnT-q-18" value="" style="endArrow=classic;html=1;rounded=0;exitX=0;exitY=0.5;exitDx=0;exitDy=0;" edge="1" parent="1" source="UCxK-_inKPw9EmvDnT-q-16">
          <mxGeometry width="50" height="50" relative="1" as="geometry">
            <mxPoint x="170" y="700" as="sourcePoint" />
            <mxPoint x="220" y="650" as="targetPoint" />
          </mxGeometry>
        </mxCell>
        <mxCell id="UCxK-_inKPw9EmvDnT-q-19" value="i&amp;lt;длинны массива" style="rhombus;whiteSpace=wrap;html=1;" vertex="1" parent="1">
          <mxGeometry x="100" y="590" width="120" height="120" as="geometry" />
        </mxCell>
        <mxCell id="UCxK-_inKPw9EmvDnT-q-21" value="" style="endArrow=classic;html=1;rounded=0;entryX=0;entryY=0.5;entryDx=0;entryDy=0;" edge="1" parent="1" target="UCxK-_inKPw9EmvDnT-q-10">
          <mxGeometry width="50" height="50" relative="1" as="geometry">
            <mxPoint x="160" y="590" as="sourcePoint" />
            <mxPoint x="210" y="540" as="targetPoint" />
            <Array as="points">
              <mxPoint x="160" y="490" />
            </Array>
          </mxGeometry>
        </mxCell>
        <mxCell id="UCxK-_inKPw9EmvDnT-q-22" value="да" style="text;html=1;align=center;verticalAlign=middle;resizable=0;points=[];autosize=1;strokeColor=none;fillColor=none;" vertex="1" parent="1">
          <mxGeometry x="150" y="528" width="40" height="30" as="geometry" />
        </mxCell>
        <mxCell id="UCxK-_inKPw9EmvDnT-q-23" value="" style="endArrow=classic;html=1;rounded=0;exitX=0.5;exitY=1;exitDx=0;exitDy=0;" edge="1" parent="1" source="UCxK-_inKPw9EmvDnT-q-19">
          <mxGeometry width="50" height="50" relative="1" as="geometry">
            <mxPoint x="150" y="790" as="sourcePoint" />
            <mxPoint x="160" y="770" as="targetPoint" />
          </mxGeometry>
        </mxCell>
        <mxCell id="UCxK-_inKPw9EmvDnT-q-25" value="нет&lt;div&gt;&lt;br&gt;&lt;/div&gt;" style="edgeLabel;html=1;align=center;verticalAlign=middle;resizable=0;points=[];" vertex="1" connectable="0" parent="UCxK-_inKPw9EmvDnT-q-23">
          <mxGeometry x="-0.1" y="7" relative="1" as="geometry">
            <mxPoint x="3" y="3" as="offset" />
          </mxGeometry>
        </mxCell>
        <mxCell id="UCxK-_inKPw9EmvDnT-q-24" value="завершение&lt;div&gt;&lt;br&gt;&lt;/div&gt;" style="ellipse;whiteSpace=wrap;html=1;" vertex="1" parent="1">
          <mxGeometry x="100" y="770" width="120" height="80" as="geometry" />
        </mxCell>
      </root>
    </mxGraphModel>
  </diagram>
</mxfile>
